<?xml version="1.0" encoding="UTF-8"?>
<svg id="Layer_1" xmlns="http://www.w3.org/2000/svg" version="1.1" viewBox="0 0 126.2 168.3">
  <!-- Generator: Adobe Illustrator 30.5.1, SVG Export Plug-In . SVG Version: 2.1.4 Build 3)  -->
  <defs>
    <style>
      .st0 {
        fill: #2e73ea;
      }
    </style>
  </defs>
  <path class="st0" d="M108.4,19.2C97.2,7.6,81.5.3,64.1,0,46.6-.2,30.8,6.6,19.2,17.8,7.6,29.1.3,44.8,0,62.2c-.2,15.6,5.2,30,14.5,41.2l19-21.6c-10.1-15.4-9.1-36.3,3.7-50.8,9.8-11.1,24.2-15.8,37.9-13.8.6,0,1.1.2,1.7.3.8.2,1.2,1.1.6,1.8l-32.2,36.5c-.4.4-.3,1.1,0,1.4l28,24.7c.4.4,1.1.3,1.4,0l32.2-36.5c.6-.6,1.6-.4,1.8.4.2.5.3,1.1.5,1.6,3.8,13.3.9,28.2-8.9,39.3-12.8,14.5-33.4,18.1-50,10l-21.1,24c8.9,11.4,16.7,23.7,23.5,36.5l5.6,10.5c.5.9,1.7.9,2.2,0l.8-1.5c12.1-21.2,27.5-40.3,45.2-57.2.2-.2.4-.4.6-.6,11.6-11.2,18.9-26.9,19.2-44.3s-6.6-33.3-17.8-44.9ZM69.1,71.2l-12.7-11.2c-.5-.5-.6-1.2-.1-1.8l1.4-1.6c.5-.5,1.2-.6,1.8-.1l12.7,11.2c.5.5.6,1.2.1,1.8l-1.4,1.6c-.5.5-1.2.6-1.8.1Z"/>
</svg>